<?xml version="1.0" encoding="UTF-8"?>
<svg version="1.1" xmlns="http://www.w3.org/2000/svg" width="500" height="500">
<path d="M0 0 C0.92320038 0.00215515 1.84640076 0.0043103 2.7975769 0.00653076 C16.8396985 0.05904851 30.57510247 0.48807734 44.375 3.3125 C45.37692383 3.51649414 46.37884766 3.72048828 47.41113281 3.93066406 C76.81783202 10.11444195 105.19887916 20.9825029 130.58447266 37.19946289 C132.22554026 38.21959204 133.92366955 39.14639899 135.625 40.0625 C149.56924563 47.98106483 162.3152561 59.80943303 173.375 71.3125 C176.0297343 74.03044226 178.67253259 76.55800001 181.625 78.9375 C186.55871843 83.13911828 190.41912313 88.21165579 194.375 93.3125 C194.86226563 93.93543945 195.34953125 94.55837891 195.8515625 95.20019531 C201.45273818 102.38813621 206.87158951 109.4604123 210.97900391 117.6328125 C212.28920869 120.14781909 213.70474696 122.53650142 215.19921875 124.9453125 C234.96364588 157.66992038 247.36563774 197.3273905 247.578125 235.66796875 C247.58518463 236.52393646 247.59224426 237.37990417 247.59951782 238.2618103 C247.92173099 288.81150536 237.42270825 337.24608261 208.9453125 379.890625 C207.71404336 381.7895973 206.57304575 383.74714356 205.46875 385.72265625 C202.08633795 391.69776837 197.6458692 396.9574281 193.375 402.3125 C192.93784668 402.86228516 192.50069336 403.41207031 192.05029297 403.97851562 C183.4732413 414.70384418 183.4732413 414.70384418 178.04296875 418.93359375 C174.82346804 421.5951482 171.99161366 424.67694599 169.0859375 427.671875 C155.38538499 441.69317623 139.7474267 452.92048427 122.51855469 462.15625 C120.31580065 463.34443259 118.13064018 464.56135492 115.9453125 465.78125 C94.47065904 477.61324187 71.53007854 485.34347198 47.625 490.5625 C46.94211914 490.71372314 46.25923828 490.86494629 45.55566406 491.02075195 C30.70670456 494.07434081 15.86074333 494.6887002 0.75 494.625 C-0.17320038 494.62284485 -1.09640076 494.6206897 -2.0475769 494.61846924 C-16.0896985 494.56595149 -29.82510247 494.13692266 -43.625 491.3125 C-45.12788574 491.00650879 -45.12788574 491.00650879 -46.66113281 490.69433594 C-73.91044805 484.96422282 -99.42401528 475.06038516 -123.625 461.3125 C-124.25245117 460.95687988 -124.87990234 460.60125977 -125.52636719 460.23486328 C-142.94309343 450.27805234 -158.75941778 437.82378335 -172.625 423.3125 C-175.2774674 420.59533827 -177.92312136 418.0652146 -180.875 415.6875 C-185.80871843 411.48588172 -189.66912313 406.41334421 -193.625 401.3125 C-194.35589844 400.37809082 -194.35589844 400.37809082 -195.1015625 399.42480469 C-200.70273818 392.23686379 -206.12158951 385.1645877 -210.22900391 376.9921875 C-211.53920869 374.47718091 -212.95474696 372.08849858 -214.44921875 369.6796875 C-234.15848212 337.04641606 -246.61618056 297.19966461 -246.828125 258.95703125 C-246.83518463 258.10106354 -246.84224426 257.24509583 -246.84951782 256.3631897 C-247.13610828 211.40208528 -238.81796471 171.15556919 -217.9375 131.0625 C-217.49841309 130.21800293 -217.05932617 129.37350586 -216.60693359 128.50341797 C-214.00331775 123.60667355 -211.14986519 118.99230027 -208.02172852 114.41430664 C-206.76625776 112.52506565 -205.63492096 110.62127339 -204.5390625 108.63671875 C-201.16348368 102.77423391 -196.83461092 97.59076259 -192.625 92.3125 C-191.96927002 91.48782227 -191.96927002 91.48782227 -191.30029297 90.64648438 C-182.7232413 79.92115582 -182.7232413 79.92115582 -177.29296875 75.69140625 C-174.02510863 72.98987317 -171.15232071 69.86297138 -168.22265625 66.8046875 C-161.20987771 59.56499317 -153.69634389 53.33706734 -145.625 47.3125 C-144.78324219 46.67570312 -143.94148438 46.03890625 -143.07421875 45.3828125 C-136.35198717 40.4795377 -129.13138216 36.48416759 -121.83300781 32.51708984 C-119.60718347 31.3027801 -117.39376401 30.06760385 -115.1796875 28.83203125 C-94.01615317 17.18530419 -71.09694838 8.9187313 -47.4375 4.0625 C-46.70313721 3.91127686 -45.96877441 3.76005371 -45.2121582 3.60424805 C-30.17127953 0.72047668 -15.27987743 -0.06441319 0 0 Z M60.375 75.3125 C60.375 84.5525 60.375 93.7925 60.375 103.3125 C72.915 103.3125 85.455 103.3125 98.375 103.3125 C93.72705512 108.62443701 89.23893101 113.48110108 84.0625 118.1875 C79.59812576 122.29494463 75.19759263 126.43055623 70.9375 130.75 C68.20763544 133.51572485 65.45660541 136.16622299 62.5 138.6875 C58.94213747 141.72680767 55.66058612 144.98614346 52.375 148.3125 C49.15102502 151.5763325 45.939821 154.78080186 42.4375 157.75 C38.71542307 160.91259982 35.30633928 164.34220696 31.875 167.8125 C27.88723443 171.84548474 23.86005092 175.70652465 19.53125 179.375 C15.92414646 182.6161655 12.56321105 186.10512379 9.15454102 189.55249023 C5.71463479 193.01636446 2.1894615 196.28374934 -1.53515625 199.44140625 C-4.34410534 201.9563345 -6.97608617 204.63085322 -9.625 207.3125 C-12.84898381 210.57632297 -16.06017821 213.78080119 -19.5625 216.75 C-23.92375834 220.4543324 -27.88045069 224.54164079 -31.90014648 228.60717773 C-35.65662056 232.39007097 -39.52775485 235.89812904 -43.625 239.3125 C-45.31316933 240.95738294 -46.97853315 242.62587542 -48.625 244.3125 C-52.38949037 248.15847285 -56.14314762 251.95502988 -60.25 255.4375 C-64.93060702 259.44944887 -69.21503941 263.849568 -73.52587891 268.25048828 C-76.23621611 271.00055978 -78.94964379 273.64470235 -81.9375 276.09375 C-84.65399494 278.17768481 -84.65399494 278.17768481 -86.5 280.6875 C-88.84599687 283.58549613 -91.41107522 285.82537561 -94.234375 288.24609375 C-101.97128435 294.93371637 -109.38819174 301.93298345 -116.52832031 309.25268555 C-119.40556881 312.18242034 -122.41576862 314.7582138 -125.625 317.3125 C-126.8146465 318.75936736 -128.00338114 320.20709164 -129.17578125 321.66796875 C-133.38392025 326.44324238 -138.6249315 330.40619648 -143.625 334.3125 C-142.20761511 337.56457092 -140.49973588 339.62611067 -137.9375 342.0625 C-134.44053567 345.45137635 -131.26328083 348.989076 -128.16796875 352.74609375 C-126.60279021 354.5720936 -126.60279021 354.5720936 -123.625 355.3125 C-122.965 354.466875 -122.305 353.62125 -121.625 352.75 C-118.95549401 349.54059392 -115.95870715 346.92165748 -112.78515625 344.22265625 C-110.51848004 342.21830785 -108.42136736 340.1067285 -106.3125 337.9375 C-103.28163546 334.85734481 -100.17896184 332.11194576 -96.76953125 329.4609375 C-89.17467871 323.30308613 -82.45883959 316.28956377 -75.625 309.3125 C-68.17821004 301.70963959 -60.84716597 294.33267252 -52.484375 287.7265625 C-46.13085312 282.36252354 -40.43875534 276.24810051 -34.625 270.3125 C-27.16279655 262.69390306 -19.81534205 255.29335302 -11.43505859 248.67285156 C-5.38809719 243.59361413 0.03358811 237.81723193 5.5625 232.1875 C19.73735552 217.79756223 19.73735552 217.79756223 25.64575195 212.78125 C28.63983347 210.23820406 31.50305515 207.55424458 34.375 204.875 C35.00801025 204.28517334 35.64102051 203.69534668 36.29321289 203.08764648 C41.90589077 197.82167649 47.35400029 192.39950495 52.74414062 186.90649414 C56.55971636 183.03880662 60.49888732 179.40223089 64.61401367 175.85522461 C66.6182348 174.09941242 68.47726697 172.24344813 70.3125 170.3125 C73.03464306 167.53698158 75.82171462 165.13613655 78.9375 162.8125 C82.70468517 159.96934138 85.67459921 156.89384026 88.69921875 153.28515625 C93.08190895 148.12604541 98.06878026 143.67578872 103.1953125 139.27734375 C106.6171151 136.1928156 109.78904825 132.8671897 112.98046875 129.546875 C115.375 127.3125 115.375 127.3125 120.375 124.3125 C120.705 136.1925 121.035 148.0725 121.375 160.3125 C130.615 160.3125 139.855 160.3125 149.375 160.3125 C149.44284391 150.76773111 149.49785536 141.22312303 149.53043652 131.67816734 C149.54607579 127.2458028 149.5672822 122.81361214 149.60131836 118.38134766 C149.63397398 114.10195843 149.65186609 109.8227362 149.65963173 105.54323196 C149.66516412 103.91258746 149.6759676 102.28195183 149.69219017 100.65137863 C149.71404734 98.36292701 149.71696353 96.07516072 149.71557617 93.78662109 C149.72223801 92.48534271 149.72889984 91.18406433 149.73576355 89.84335327 C149.3405209 85.97504723 148.4211706 83.6004417 146.375 80.3125 C140.85981805 76.06121391 136.75148997 75.16457704 129.96606445 75.19897461 C129.21460144 75.19882858 128.46313843 75.19868256 127.68890381 75.1985321 C125.20533358 75.19922871 122.72183837 75.20700933 120.23828125 75.21484375 C118.51621034 75.21670882 116.79413889 75.21813231 115.07206726 75.21913147 C110.53960709 75.2229496 106.00717896 75.23277389 101.47473145 75.24383545 C96.84969516 75.25406469 92.22465371 75.25863234 87.59960938 75.26367188 C78.52472324 75.27439678 69.4498693 75.2919879 60.375 75.3125 Z M121.375 198.3125 C121.375 271.2425 121.375 344.1725 121.375 419.3125 C130.615 419.3125 139.855 419.3125 149.375 419.3125 C149.375 346.3825 149.375 273.4525 149.375 198.3125 C140.135 198.3125 130.895 198.3125 121.375 198.3125 Z M53.375 244.3125 C53.375 302.0625 53.375 359.8125 53.375 419.3125 C62.945 419.3125 72.515 419.3125 82.375 419.3125 C82.39811659 396.64299008 82.41597799 373.97348298 82.42681217 351.30396366 C82.43197564 340.77889162 82.43901931 330.25382703 82.45043945 319.72875977 C82.46038473 310.55861403 82.46685305 301.38847368 82.46908849 292.21832269 C82.47039587 287.35964856 82.47348339 282.50098984 82.48073006 277.64232063 C82.48748782 273.07469426 82.48961746 268.50708974 82.48810768 263.93945885 C82.48838412 262.25798041 82.49039069 260.57650129 82.49420547 258.89502716 C82.49913892 256.60947986 82.4979996 254.32401642 82.49525452 252.03846741 C82.49617631 250.75625337 82.4970981 249.47403933 82.49804783 248.15297031 C82.69986564 245.41208517 82.69986564 245.41208517 81.375 244.3125 C72.135 244.3125 62.895 244.3125 53.375 244.3125 Z M-13.625 290.3125 C-13.625 332.8825 -13.625 375.4525 -13.625 419.3125 C-4.715 419.3125 4.195 419.3125 13.375 419.3125 C13.375 376.7425 13.375 334.1725 13.375 290.3125 C4.465 290.3125 -4.445 290.3125 -13.625 290.3125 Z M-82.625 335.3125 C-82.625 363.0325 -82.625 390.7525 -82.625 419.3125 C-73.055 419.3125 -63.485 419.3125 -53.625 419.3125 C-53.625 391.5925 -53.625 363.8725 -53.625 335.3125 C-63.195 335.3125 -72.765 335.3125 -82.625 335.3125 Z M-149.625 382.3125 C-149.625 394.5225 -149.625 406.7325 -149.625 419.3125 C-140.385 419.3125 -131.145 419.3125 -121.625 419.3125 C-121.625 407.1025 -121.625 394.8925 -121.625 382.3125 C-130.865 382.3125 -140.105 382.3125 -149.625 382.3125 Z " fill="#FE4055" transform="translate(249.625,2.6875)"/>
<path d="M0 0 C4.25414623 -0.02465622 8.50825498 -0.04283899 12.76245117 -0.05493164 C14.21070073 -0.05997101 15.65894517 -0.06680253 17.10717773 -0.07543945 C19.18474588 -0.08752247 21.26224697 -0.09323211 23.33984375 -0.09765625 C24.59144287 -0.10289307 25.84304199 -0.10812988 27.13256836 -0.11352539 C30 0 30 0 31 1 C31.10147498 3.26097521 31.13078249 5.52518757 31.13371277 7.78843689 C31.13597833 8.5065854 31.13824388 9.22473391 31.14057809 9.96464449 C31.1469462 12.3891247 31.14608694 14.81354942 31.14526367 17.23803711 C31.14825341 18.96890842 31.15165551 20.69977905 31.15544128 22.4306488 C31.16430425 27.14545309 31.16662036 31.86023926 31.16725707 36.57505107 C31.16820424 40.50421866 31.17188029 44.43338198 31.17542917 48.36254793 C31.18358242 57.6286637 31.1860126 66.89476974 31.18530273 76.16088867 C31.18470168 85.7351608 31.19525709 95.30937663 31.2110464 104.88363451 C31.22410005 113.08999013 31.22948755 121.2963273 31.22884732 129.50269324 C31.2285917 134.41002316 31.23147826 139.31730309 31.24202538 144.22462273 C31.2516699 148.83825474 31.25181076 153.45178859 31.24450874 158.06542397 C31.24345835 159.76260902 31.24585254 161.45980007 31.2518692 163.15697479 C31.25952824 165.46629374 31.25498523 167.77526851 31.24723816 170.08457947 C31.24778293 171.37932158 31.24832769 172.6740637 31.24888897 174.00804043 C31 177 31 177 29 179 C26.11083984 179.22705078 26.11083984 179.22705078 22.4609375 179.1953125 C20.50800781 179.18564453 20.50800781 179.18564453 18.515625 179.17578125 C17.13541405 179.15906929 15.75520571 179.14213939 14.375 179.125 C12.98698548 179.11497006 11.59896411 179.10584423 10.2109375 179.09765625 C6.80711974 179.07401863 3.40364494 179.04106867 0 179 C-2.12734262 172.74310995 -2.12734262 172.74310995 -1.56668091 169.47135925 C-0.75601518 164.5054041 -0.86113364 159.6067843 -0.87060547 154.58325195 C-0.86885315 153.43890686 -0.86710083 152.29456177 -0.86529541 151.11553955 C-0.86088898 147.32310474 -0.86381632 143.53071657 -0.8671875 139.73828125 C-0.86651278 137.07301273 -0.86554219 134.40774559 -0.86428833 131.74247742 C-0.86246773 126.13454695 -0.86486242 120.52662963 -0.86962891 114.91870117 C-0.87440717 109.23314552 -0.87451088 103.54761611 -0.86962891 97.86206055 C-0.86264483 89.61246163 -0.86167338 81.36288148 -0.8671875 73.11328125 C-0.86755351 72.44500258 -0.86791952 71.77672391 -0.86829662 71.08819437 C-0.87993511 53.35604635 -0.98098046 35.63837531 -1.8263855 17.92341614 C-2.09410627 11.49460251 -2.01087318 6.13772247 0 0 Z M1 2 C1 59.75 1 117.5 1 177 C10.57 177 20.14 177 30 177 C30.02311659 154.33049008 30.04097799 131.66098298 30.05181217 108.99146366 C30.05697564 98.46639162 30.06401931 87.94132703 30.07543945 77.41625977 C30.08538473 68.24611403 30.09185305 59.07597368 30.09408849 49.90582269 C30.09539587 45.04714856 30.09848339 40.18848984 30.10573006 35.32982063 C30.11248782 30.76219426 30.11461746 26.19458974 30.11310768 21.62695885 C30.11338412 19.94548041 30.11539069 18.26400129 30.11920547 16.58252716 C30.12413892 14.29697986 30.1229996 12.01151642 30.12025452 9.72596741 C30.12117631 8.44375337 30.1220981 7.16153933 30.12304783 5.84047031 C30.32486564 3.09958517 30.32486564 3.09958517 29 2 C19.76 2 10.52 2 1 2 Z " fill="#E84C5A" transform="translate(302,245)"/>
<path d="M0 0 C4.1117256 -0.02465746 8.22342278 -0.04283959 12.33520508 -0.05493164 C13.73495228 -0.0599708 15.1346942 -0.06680216 16.53442383 -0.07543945 C18.54245777 -0.0875232 20.55052957 -0.09269807 22.55859375 -0.09765625 C24.37315063 -0.10551147 24.37315063 -0.10551147 26.22436523 -0.11352539 C29 0 29 0 30 1 C30.09498646 3.43396019 30.12558417 5.83942952 30.11352539 8.27368164 C30.11367142 9.03460617 30.11381744 9.7955307 30.1139679 10.57951355 C30.11326862 13.10642298 30.10547555 15.63325962 30.09765625 18.16015625 C30.09579212 19.9075059 30.0943682 21.65485607 30.09336853 23.40220642 C30.08954293 28.01031934 30.07971229 32.61840095 30.06866455 37.22650146 C30.05845134 41.92508521 30.0538711 46.62367399 30.04882812 51.32226562 C30.03809005 60.54819087 30.02101313 69.77409284 30 79 C30.66 79 31.32 79 32 79 C31.34 80.98 30.68 82.96 30 85 C29.34 85 28.68 85 28 85 C28 57.28 28 29.56 28 1 C18.76 1 9.52 1 0 1 C0 0.67 0 0.34 0 0 Z " fill="#EB5C6B" transform="translate(168,337)"/>
<path d="M0 0 C3.96930989 -0.02465881 7.93859034 -0.04284023 11.90795898 -0.05493164 C13.25920386 -0.05997057 14.61044326 -0.06680177 15.96166992 -0.07543945 C17.90020434 -0.08752419 19.838778 -0.09269828 21.77734375 -0.09765625 C23.52905884 -0.10551147 23.52905884 -0.10551147 25.31616211 -0.11352539 C28 0 28 0 29 1 C29.09616807 2.68291696 29.12187691 4.36989561 29.12025452 6.05555725 C29.12162918 7.15077194 29.12300385 8.24598663 29.12442017 9.37438965 C29.12082489 10.58639038 29.11722961 11.79839111 29.11352539 13.04711914 C29.11367142 14.31522934 29.11381744 15.58333954 29.1139679 16.88987732 C29.11425585 20.37732422 29.10835945 23.86473701 29.10139394 27.35217595 C29.09516007 30.99303723 29.09455658 34.63389922 29.09336853 38.27476501 C29.09025531 45.17376972 29.08204205 52.07275865 29.07201904 58.9717564 C29.06085761 66.82410685 29.05534738 74.67645803 29.05032361 82.52881444 C29.03985943 98.68588553 29.02226017 114.84294076 29 131 C28.67 131 28.34 131 28 131 C27.67 88.43 27.34 45.86 27 2 C17.76 2 8.52 2 -1 2 C-0.67 1.34 -0.34 0.68 0 0 Z " fill="#D94655" transform="translate(236,291)"/>
<path d="M0 0 C0.33 0 0.66 0 1 0 C1 44.22 1 88.44 1 134 C10.57 134 20.14 134 30 134 C29.67 134.66 29.34 135.32 29 136 C19.43 136 9.86 136 0 136 C-2.09312991 128.67404532 -2.09312991 128.67404532 -1 123 C-0.81420863 119.0110792 -0.81504003 115.02060633 -0.79467773 111.02783203 C-0.78477814 109.82726669 -0.77487854 108.62670135 -0.76467896 107.38975525 C-0.73857256 104.11130188 -0.71667717 100.83285328 -0.69667697 97.55435801 C-0.6747411 94.12303514 -0.64738976 90.69175548 -0.62062073 87.26046753 C-0.57079626 80.76894423 -0.52581962 74.27739682 -0.48259836 67.78582656 C-0.43313817 60.39281289 -0.37825274 52.99984257 -0.32291877 45.60687089 C-0.20925611 30.40462105 -0.10238313 15.20233031 0 0 Z " fill="#E34556" transform="translate(302,288)"/>
<path d="M0 0 C4.75 0.75 4.75 0.75 7 3 C7 4.32 7 5.64 7 7 C7.66 7 8.32 7 9 7 C9 32.08 9 57.16 9 83 C8.34 83 7.68 83 7 83 C6.99413376 82.08624603 6.98826752 81.17249207 6.98222351 80.23104858 C6.92425887 71.60908519 6.8521604 62.98737981 6.76428509 54.36566734 C6.71960597 49.9334127 6.68034448 45.50124945 6.65356445 41.06884766 C6.62750685 36.78928558 6.58708723 32.51007567 6.53681374 28.23073196 C6.5201616 26.60015883 6.50863702 24.96952481 6.50238609 23.33887863 C6.49272677 21.05025283 6.4646472 18.76252461 6.43237305 16.47412109 C6.42126999 15.17284271 6.41016693 13.87156433 6.39872742 12.53085327 C5.81682083 7.37789236 3.96117965 3.39529685 0 0 Z " fill="#E56C7A" transform="translate(392,80)"/>
<path d="M0 0 C0 4.07035972 -1.5985622 6.8284218 -4 10 C-5.70492499 11.44384599 -7.45193547 12.656484 -9.328125 13.8671875 C-11.2104595 15.06040049 -11.2104595 15.06040049 -13.25 17.3125 C-15 19 -15 19 -18 19 C-18.165 19.86625 -18.33 20.7325 -18.5 21.625 C-20.34107264 25.76741344 -22.53742343 27.22408954 -26.22265625 29.703125 C-28.13706195 30.89168554 -28.13706195 30.89168554 -29 33 C-29.99 33 -30.98 33 -32 33 C-32.4021875 34.175625 -32.4021875 34.175625 -32.8125 35.375 C-34 38 -34 38 -37 40 C-37.99 40 -38.98 40 -40 40 C-40 40.99 -40 41.98 -40 43 C-40.66 43 -41.32 43 -42 43 C-42.33 43.99 -42.66 44.98 -43 46 C-44.32 45.67 -45.64 45.34 -47 45 C-45.83687329 43.80903249 -44.66923328 42.62247296 -43.5 41.4375 C-42.8503125 40.77621094 -42.200625 40.11492187 -41.53125 39.43359375 C-39.5023344 37.48295422 -37.44597236 35.64776102 -35.3125 33.81640625 C-30.4702591 29.6110351 -25.99662544 25.06880241 -21.5 20.5 C-16.36927561 15.28692048 -11.22667726 10.18527684 -5.66015625 5.43530273 C-3.6734936 3.71771601 -1.81833095 1.89409474 0 0 Z " fill="#EA4D62" transform="translate(320,172)"/>
<path d="M0 0 C5.94 0 11.88 0 18 0 C18 0.66 18 1.32 18 2 C35.49 2 52.98 2 71 2 C71 2.33 71 2.66 71 3 C64.45944488 3.75201908 58.01578179 4.15896751 51.43359375 4.16796875 C50.11694481 4.17296135 50.11694481 4.17296135 48.7736969 4.17805481 C46.92750567 4.18308051 45.08130549 4.1854645 43.23510742 4.18530273 C40.46842743 4.18747571 37.70215594 4.20564144 34.93554688 4.22460938 C26.33699255 4.25237981 17.83612803 4.07552351 9.28515625 3.11328125 C8.57370956 3.03554977 7.86226288 2.9578183 7.1292572 2.87773132 C2.25508231 2.25508231 2.25508231 2.25508231 0 0 Z " fill="#E2717D" transform="translate(210,493)"/>
<path d="M0 0 C0.66 0.33 1.32 0.66 2 1 C2 12.55 2 24.1 2 36 C1.34 36 0.68 36 0 36 C-0.33 26.43 -0.66 16.86 -1 7 C-5.60466117 10.88697878 -5.60466117 10.88697878 -10 15 C-12.625 15.125 -12.625 15.125 -15 15 C-10.45200375 9.40246616 -5.47668152 4.6856053 0 0 Z " fill="#D94E5D" transform="translate(369,126)"/>
<path d="M0 0 C12.54 0 25.08 0 38 0 C36.27035628 3.45928744 35.10462427 5.14412493 32.4375 7.75 C31.81746094 8.36359375 31.19742187 8.9771875 30.55859375 9.609375 C29 11 29 11 28 11 C28 8.36 28 5.72 28 3 C29.65 2.67 31.3 2.34 33 2 C22.11 2 11.22 2 0 2 C0 1.34 0 0.68 0 0 Z " fill="#E64A5D" transform="translate(310,106)"/>
<path d="M0 0 C0.495 1.98 0.495 1.98 1 4 C0.01 4.33 -0.98 4.66 -2 5 C-3.84399021 6.9466718 -5.49469912 9.00800719 -7.18359375 11.08984375 C-9.03479014 13.03658576 -10.60280744 13.86502348 -13 15 C-13.33 15.66 -13.66 16.32 -14 17 C-15 19 -15 19 -17.0625 20 C-17.701875 20.33 -18.34125 20.66 -19 21 C-19.2165625 21.8971875 -19.2165625 21.8971875 -19.4375 22.8125 C-20.29814934 26.15946965 -22.45902307 27.7688983 -25 30 C-25.66 30 -26.32 30 -27 30 C-27.33 30.99 -27.66 31.98 -28 33 C-30.0625 33.6875 -30.0625 33.6875 -32 34 C-27.00757286 27.24049383 -22.16541895 20.82201191 -15.6796875 15.421875 C-13.30883039 13.41491689 -11.17017554 11.22184639 -9 9 C-7.39718992 7.39447789 -5.79291845 5.7904139 -4.1875 4.1875 C-3.39730469 3.39730469 -2.60710937 2.60710937 -1.79296875 1.79296875 C-1.20128906 1.20128906 -0.60960938 0.60960937 0 0 Z " fill="#ED4758" transform="translate(88,63)"/>
<path d="M0 0 C11.04599338 1.30216995 21.42984325 4.66585263 32 8 C31.34 8.66 30.68 9.32 30 10 C27.54901444 9.60467975 25.36095721 8.78698574 23 8 C20.83783366 7.74923329 18.66992814 7.54605289 16.5 7.375 C14.78296875 7.23191406 14.78296875 7.23191406 13.03125 7.0859375 C9.95264068 6.82523887 9.95264068 6.82523887 7 8 C6.67 6.35 6.34 4.7 6 3 C3.03 2.505 3.03 2.505 0 2 C0 1.34 0 0.68 0 0 Z " fill="#EE5C6E" transform="translate(296,7)"/>
<path d="M0 0 C26.07 0 52.14 0 79 0 C79.495 1.485 79.495 1.485 80 3 C79.3287056 2.83923477 78.65741119 2.67846954 77.96577454 2.51283264 C74.48029518 1.91013424 71.07311856 1.82437199 67.54760742 1.79467773 C66.8153595 1.78477814 66.08311157 1.77487854 65.32867432 1.76467896 C62.92097143 1.73322375 60.51324884 1.70837011 58.10546875 1.68359375 C56.43109133 1.6630104 54.75671895 1.64201357 53.08235168 1.62062073 C48.68478484 1.56554262 44.28717221 1.51607071 39.88952637 1.46777344 C35.39831488 1.41745401 30.90716953 1.36182255 26.41601562 1.30664062 C17.61073307 1.19923359 8.80539503 1.09775018 0 1 C0 0.67 0 0.34 0 0 Z " fill="#D24A5C" transform="translate(312,77)"/>
<path d="M0 0 C1.125 4.75 1.125 4.75 0 7 C-0.15608023 9.40560273 -0.25804458 11.78702772 -0.31640625 14.1953125 C-0.33718735 14.90275604 -0.35796844 15.61019958 -0.37937927 16.33908081 C-0.44481078 18.60095425 -0.50372974 20.86294462 -0.5625 23.125 C-0.60569133 24.65756422 -0.64930582 26.19011657 -0.69335938 27.72265625 C-0.80048555 31.48165073 -0.9017709 35.24076292 -1 39 C-1.33 39 -1.66 39 -2 39 C-2 26.79 -2 14.58 -2 2 C-11.24 2 -20.48 2 -30 2 C-30 1.67 -30 1.34 -30 1 C-26.87522287 0.82897872 -23.75015208 0.66401507 -20.625 0.5 C-19.75488281 0.45230469 -18.88476562 0.40460938 -17.98828125 0.35546875 C-11.98637239 0.04425866 -6.00955557 -0.05823526 0 0 Z " fill="#E57E90" transform="translate(130,383)"/>
<path d="M0 0 C0.66 0 1.32 0 2 0 C2 13.53 2 27.06 2 41 C1.34 41 0.68 41 0 41 C-0.16833464 36.12554802 -0.32881405 31.25092258 -0.48217773 26.37597656 C-0.53538316 24.71933116 -0.59069413 23.06275193 -0.64819336 21.40625 C-0.73070709 19.01837428 -0.80552108 16.63035912 -0.87890625 14.2421875 C-0.90594131 13.50757294 -0.93297638 12.77295837 -0.96083069 12.01608276 C-1.07964692 7.87582382 -0.82910163 4.05896893 0 0 Z " fill="#E7606F" transform="translate(301,247)"/>
<path d="M0 0 C0 4.0333534 -1.60879918 5.83517538 -4 9 C-4.66 9 -5.32 9 -6 9 C-6 9.66 -6 10.32 -6 11 C-6.99 11.33 -7.98 11.66 -9 12 C-10.01351664 13.65848177 -11.01120795 15.32665961 -12 17 C-13.62449243 18.70779973 -15.29220027 20.37550757 -17 22 C-17.680625 22.78375 -18.36125 23.5675 -19.0625 24.375 C-19.701875 24.91125 -20.34125 25.4475 -21 26 C-22.32 25.67 -23.64 25.34 -25 25 C-16.75 16.75 -8.5 8.5 0 0 Z " fill="#EB5364" transform="translate(265,224)"/>
<path d="M0 0 C0.66 0.66 1.32 1.32 2 2 C4.06874034 2.6425235 4.06874034 2.6425235 6 3 C4.21326795 4.5058745 2.42046492 6.0045485 0.625 7.5 C-0.37273437 8.3353125 -1.37046875 9.170625 -2.3984375 10.03125 C-5 12 -5 12 -7 12 C-8.42944945 9.64561267 -9.08661261 8.51967567 -8.625 5.75 C-8.41875 5.1725 -8.2125 4.595 -8 4 C-6.865625 3.71125 -5.73125 3.4225 -4.5625 3.125 C-3.386875 2.75375 -2.21125 2.3825 -1 2 C-0.67 1.34 -0.34 0.68 0 0 Z " fill="#F74A5F" transform="translate(401,438)"/>
<path d="M0 0 C4.30511248 7.81096356 4.38190483 16.39110639 3 25 C1.2175082 21.66688525 0.51207144 18.75519057 0 15 C-0.99 15 -1.98 15 -3 15 C-3.19817451 10.73924812 -2.73533214 7.87897772 -1 4 C-0.64141484 2.67323492 -0.2981424 1.34164079 0 0 Z " fill="#F15F6F" transform="translate(491,197)"/>
<path d="M0 0 C0 4.07035972 -1.5985622 6.8284218 -4 10 C-5.70736846 11.44591528 -7.45650146 12.65945732 -9.3359375 13.87109375 C-11.19673619 15.04592566 -11.19673619 15.04592566 -13.125 17.25 C-15.37339782 19.34850464 -16.98598518 19.66510946 -20 20 C-15.3583313 14.19791413 -10.11527256 9.3123577 -4.609375 4.35546875 C-3.04024359 2.93902228 -1.49473978 1.49473978 0 0 Z " fill="#F27A8E" transform="translate(320,172)"/>
<path d="M0 0 C9.24 0 18.48 0 28 0 C28.33 0.99 28.66 1.98 29 3 C28.34 3.66 27.68 4.32 27 5 C27 4.01 27 3.02 27 2 C17.76 2 8.52 2 -1 2 C-0.67 1.34 -0.34 0.68 0 0 Z " fill="#DE5363" transform="translate(236,291)"/>
<path d="M0 0 C0.66 0.33 1.32 0.66 2 1 C2 2.32 2 3.64 2 5 C2.66 5 3.32 5 4 5 C3.98839844 5.62648438 3.97679687 6.25296875 3.96484375 6.8984375 C3.95582031 7.71570313 3.94679687 8.53296875 3.9375 9.375 C3.92589844 10.18710937 3.91429687 10.99921875 3.90234375 11.8359375 C3.85533666 14.04937142 3.85533666 14.04937142 5 16 C4.01 16.33 3.02 16.66 2 17 C1.67 17.99 1.34 18.98 1 20 C-0.32 19.67 -1.64 19.34 -3 19 C-2.01 19 -1.02 19 0 19 C0 12.73 0 6.46 0 0 Z " fill="#EA495C" transform="translate(129,403)"/>
<path d="M0 0 C0 0.66 0 1.32 0 2 C-0.99 2.66 -1.98 3.32 -3 4 C-3.495 4.845625 -3.99 5.69125 -4.5 6.5625 C-6 9 -6 9 -9 10 C-10.1500831 11.96672915 -10.1500831 11.96672915 -11 14 C-12 15 -12 15 -14.5625 15.0625 C-15.366875 15.041875 -16.17125 15.02125 -17 15 C-4.8125 0 -4.8125 0 0 0 Z " fill="#EC4F64" transform="translate(197,291)"/>
<path d="M0 0 C2.57877584 4.02933725 2 5.51534435 2 11 C11.57 11 21.14 11 31 11 C30.67 11.66 30.34 12.32 30 13 C20.43 13 10.86 13 1 13 C-1.25 5.125 -1.25 5.125 0 0 Z " fill="#D94B5C" transform="translate(301,411)"/>
<path d="M0 0 C0.66 0 1.32 0 2 0 C2.433125 1.2065625 2.433125 1.2065625 2.875 2.4375 C3.73262568 5.1326468 3.73262568 5.1326468 6 6 C6.52718344 7.94398892 7.04625644 9.8912486 7.4921875 11.85546875 C8.15017352 14.63419431 9.05726562 17.30647321 10 20 C10.66 20 11.32 20 12 20 C12.99 22.97 13.98 25.94 15 29 C11.96268984 26.20198568 10.04360752 23.59106173 8.203125 19.90234375 C7.71972656 18.93619141 7.23632812 17.97003906 6.73828125 16.97460938 C6.24714844 15.97236328 5.75601562 14.97011719 5.25 13.9375 C4.74339844 12.93138672 4.23679687 11.92527344 3.71484375 10.88867188 C0 3.39389951 0 3.39389951 0 0 Z " fill="#E95B6C" transform="translate(23,346)"/>
<path d="M0 0 C0.33 0.66 0.66 1.32 1 2 C1.99 2.33 2.98 2.66 4 3 C3.44570313 3.48210937 2.89140625 3.96421875 2.3203125 4.4609375 C1.59585937 5.09257812 0.87140625 5.72421875 0.125 6.375 C-0.59429687 7.00148437 -1.31359375 7.62796875 -2.0546875 8.2734375 C-3.4076598 9.47426834 -4.7208345 10.7208345 -6 12 C-8.625 12.125 -8.625 12.125 -11 12 C-7.49102731 7.81576108 -3.91939465 3.80411834 0 0 Z " fill="#F36D7D" transform="translate(365,129)"/>
<path d="M0 0 C1.32 0 2.64 0 4 0 C1.22834703 6.21232561 -3.9962731 10.90717099 -10 14 C-10 12.68 -10 11.36 -10 10 C-9.01 10 -8.02 10 -7 10 C-7 9.01 -7 8.02 -7 7 C-6.34 7 -5.68 7 -5 7 C-4.67 5.68 -4.34 4.36 -4 3 C-2.68 3 -1.36 3 0 3 C0 2.01 0 1.02 0 0 Z " fill="#EE6278" transform="translate(280,167)"/>
<path d="M0 0 C5.99712073 4.34791253 9.82052217 9.94293949 14 16 C13.34 16.66 12.68 17.32 12 18 C12 17.34 12 16.68 12 16 C10.68 15.67 9.36 15.34 8 15 C7.34 12.69 6.68 10.38 6 8 C5.34 8 4.68 8 4 8 C4 7.34 4 6.68 4 6 C3.01 6 2.02 6 1 6 C0.67 4.02 0.34 2.04 0 0 Z " fill="#EE6775" transform="translate(435,87)"/>
<path d="M0 0 C0.33 1.32 0.66 2.64 1 4 C-0.11375 4.5878125 -0.11375 4.5878125 -1.25 5.1875 C-4.20415491 7.13455665 -5.86834049 9.20679099 -8 12 C-8.99 12.495 -8.99 12.495 -10 13 C-10.268125 13.61875 -10.53625 14.2375 -10.8125 14.875 C-12.38063622 17.6811385 -14.13037505 18.63692815 -17 20 C-17.66 19.67 -18.32 19.34 -19 19 C-12.73 12.73 -6.46 6.46 0 0 Z " fill="#E35F6F" transform="translate(228,259)"/>
<path d="M0 0 C2.67724855 2.67724855 3.42410074 5.73008299 4.5625 9.25 C4.78357422 9.90613281 5.00464844 10.56226563 5.23242188 11.23828125 C6.51131808 15.12519841 7.65543315 18.91355811 8 23 C7.34 23.66 6.68 24.32 6 25 C5.81824219 24.13117188 5.63648438 23.26234375 5.44921875 22.3671875 C4.15737674 16.44458875 2.76992075 11.40794051 0 6 C-0.1875 2.625 -0.1875 2.625 0 0 Z " fill="#EE7587" transform="translate(481,164)"/>
<path d="M0 0 C3.14823068 3.68100818 4.82051175 7.83782734 6.6875 12.25 C7.00783203 12.99507812 7.32816406 13.74015625 7.65820312 14.5078125 C8.44359663 16.33648991 9.22245338 18.16797236 10 20 C9.34 20.66 8.68 21.32 8 22 C8 21.01 8 20.02 8 19 C7.34 19 6.68 19 6 19 C6 18.01 6 17.02 6 16 C5.01 15.67 4.02 15.34 3 15 C3 12.69 3 10.38 3 8 C2.34 8 1.68 8 1 8 C0.67 5.36 0.34 2.72 0 0 Z " fill="#ED5B6A" transform="translate(471,141)"/>
<path d="M0 0 C12.21 0 24.42 0 37 0 C35 4 35 4 33 5 C33 3.68 33 2.36 33 1 C22.11 1 11.22 1 0 1 C0 0.67 0 0.34 0 0 Z " fill="#F6929F" transform="translate(311,106)"/>
<path d="M0 0 C-2.39503687 1.12672175 -4.7909871 2.25142558 -7.1875 3.375 C-7.86103516 3.69210937 -8.53457031 4.00921875 -9.22851562 4.3359375 C-11.14762294 5.23464141 -13.07235942 6.11977504 -15 7 C-16.38638672 7.63808594 -16.38638672 7.63808594 -17.80078125 8.2890625 C-20 9 -20 9 -23 8 C-22.67 7.34 -22.34 6.68 -22 6 C-20.02 6 -18.04 6 -16 6 C-16 5.34 -16 4.68 -16 4 C-14.02 3.67 -12.04 3.34 -10 3 C-10 2.34 -10 1.68 -10 1 C-3.375 -1.125 -3.375 -1.125 0 0 Z " fill="#EC6073" transform="translate(359,472)"/>
<path d="M0 0 C-6.15034169 7.48291572 -6.15034169 7.48291572 -10 10 C-10 8.68 -10 7.36 -10 6 C-9.34 6 -8.68 6 -8 6 C-8.33 5.01 -8.66 4.02 -9 3 C-8.67 2.01 -8.34 1.02 -8 0 C-5.13822943 -1.43088528 -3.06624227 -0.59991697 0 0 Z " fill="#F2677A" transform="translate(325,129)"/>
<path d="M0 0 C0.99 0.33 1.98 0.66 3 1 C0.54905289 6.55548012 -4.01132848 8.95659662 -9 12 C-9.66 11.67 -10.32 11.34 -11 11 C-7.37 7.37 -3.74 3.74 0 0 Z " fill="#E75A6D" transform="translate(299,192)"/>
<path d="M0 0 C0.66 0 1.32 0 2 0 C0.9007105 6.31121503 -0.58137942 12.06338584 -3 18 C-3.66 17.67 -4.32 17.34 -5 17 C-5 15.35 -5 13.7 -5 12 C-4.34 12 -3.68 12 -3 12 C-2.80083984 10.82630859 -2.80083984 10.82630859 -2.59765625 9.62890625 C-2.42105469 8.61699219 -2.24445313 7.60507812 -2.0625 6.5625 C-1.88847656 5.55316406 -1.71445312 4.54382813 -1.53515625 3.50390625 C-1 1 -1 1 0 0 Z " fill="#EC6B79" transform="translate(486,316)"/>
<path d="M0 0 C0.66 1.32 1.32 2.64 2 4 C1.0479279 5.00596297 0.08812654 6.00461563 -0.875 7 C-1.40867187 7.556875 -1.94234375 8.11375 -2.4921875 8.6875 C-4 10 -4 10 -6 10 C-6.33 10.99 -6.66 11.98 -7 13 C-9.0625 13.6875 -9.0625 13.6875 -11 14 C-7.46386286 9.21224044 -3.85516296 4.53548584 0 0 Z " fill="#ED6877" transform="translate(67,83)"/>
<path d="M0 0 C0 3 0 3 -1.13671875 4.5 C-8.890625 12 -8.890625 12 -14 12 C-12.23519919 10.1812664 -10.46369235 8.37005009 -8.6875 6.5625 C-8.18798828 6.04623047 -7.68847656 5.52996094 -7.17382812 4.99804688 C-4.80130365 2.59409824 -3.25029621 1.08343207 0 0 Z " fill="#EB5065" transform="translate(211,278)"/>
<path d="M0 0 C5.7266425 2.9826263 10.26638344 6.62294157 15 11 C14.01 12.485 14.01 12.485 13 14 C13 13.01 13 12.02 13 11 C10.525 10.01 10.525 10.01 8 9 C8 8.34 8 7.68 8 7 C6.68 7 5.36 7 4 7 C4 6.01 4 5.02 4 4 C3.01 4.33 2.02 4.66 1 5 C0.67 3.35 0.34 1.7 0 0 Z " fill="#EE5D70" transform="translate(392,48)"/>
<path d="M0 0 C0.33 0 0.66 0 1 0 C1 9.24 1 18.48 1 28 C0.34 28 -0.32 28 -1 28 C-1.33 25.03 -1.66 22.06 -2 19 C-1.34 19 -0.68 19 0 19 C0 12.73 0 6.46 0 0 Z " fill="#F2707D" transform="translate(309,78)"/>
<path d="M0 0 C0.66 0.66 1.32 1.32 2 2 C0.02 6.95 -1.96 11.9 -4 17 C-4.33 17 -4.66 17 -5 17 C-5.33 14.69 -5.66 12.38 -6 10 C-5.38125 9.835 -4.7625 9.67 -4.125 9.5 C-0.72243051 7.09818625 -0.77387974 3.99837866 0 0 Z " fill="#EC5A6D" transform="translate(480,334)"/>
<path d="M0 0 C0 4.03416942 -1.6539134 6.82941012 -4 10 C-6.75 11.9375 -6.75 11.9375 -9 13 C-7.68554313 7.01191871 -4.38808974 3.96570677 0 0 Z M-11 13 C-9 14 -9 14 -9 14 Z " fill="#F26A78" transform="translate(320,172)"/>
<path d="M0 0 C4.95 0 9.9 0 15 0 C11.54350424 1.72824788 9.27555438 2.47611671 5.5625 3.125 C4.17224609 3.37636719 4.17224609 3.37636719 2.75390625 3.6328125 C0.12946175 3.98273843 -2.35642353 4.06716891 -5 4 C-4.34 3.34 -3.68 2.68 -3 2 C-2.01 2 -1.02 2 0 2 C0 1.34 0 0.68 0 0 Z " fill="#E98593" transform="translate(288,491)"/>
<path d="M0 0 C1.58409994 0.11487748 3.16728963 0.24234508 4.75 0.375 C6.07257813 0.47941406 6.07257813 0.47941406 7.421875 0.5859375 C10.01628622 1.00261567 11.70275858 1.77480458 14 3 C15.99110401 3.38290462 17.99100513 3.72604615 20 4 C19.67 4.66 19.34 5.32 19 6 C16.39392608 5.38221953 13.79034303 4.75612789 11.1875 4.125 C10.44951172 3.95097656 9.71152344 3.77695312 8.95117188 3.59765625 C5.50282963 2.75507489 2.98071638 1.98714425 0 0 Z " fill="#ED7386" transform="translate(172,484)"/>
<path d="M0 0 C0.33 0.66 0.66 1.32 1 2 C0.3125 4.0625 0.3125 4.0625 -1 6 C-3.125 6.75 -3.125 6.75 -5 7 C-5 7.99 -5 8.98 -5 10 C-7.375 11.75 -7.375 11.75 -10 13 C-10.66 12.67 -11.32 12.34 -12 12 C-8.04 8.04 -4.08 4.08 0 0 Z " fill="#E86171" transform="translate(172,313)"/>
<path d="M0 0 C0 4.0333534 -1.60879918 5.83517538 -4 9 C-4.66 9 -5.32 9 -6 9 C-6 9.66 -6 10.32 -6 11 C-7.65 11.33 -9.3 11.66 -11 12 C-7.49102731 7.81576108 -3.91939465 3.80411834 0 0 Z " fill="#EC7B88" transform="translate(265,224)"/>
<path d="M0 0 C0 3.2388234 -0.19064577 4.36821203 -2 7 C-3.98246398 8.03432904 -5.98413316 9.03238392 -8 10 C-10.31418291 12.06167261 -10.31418291 12.06167261 -12 14 C-12.66 13.67 -13.32 13.34 -14 13 C-9.38 8.71 -4.76 4.42 0 0 Z " fill="#F392A0" transform="translate(156,328)"/>
<path d="M0 0 C0.33 0 0.66 0 1 0 C1.71033431 5.52967941 2.30267176 10.49983036 1 16 C-0.32 15.34 -1.64 14.68 -3 14 C-2.01 9.38 -1.02 4.76 0 0 Z " fill="#F46379" transform="translate(493,278)"/>
<path d="M0 0 C0.33 0.66 0.66 1.32 1 2 C-0.43257963 4.72872311 -1.81722366 6.81722366 -4 9 C-6.625 9.125 -6.625 9.125 -9 9 C-6 6 -3 3 0 0 Z " fill="#ED6876" transform="translate(330,163)"/>
<path d="M0 0 C0.66 0.33 1.32 0.66 2 1 C1.505 1.433125 1.01 1.86625 0.5 2.3125 C-1.33218192 3.99740483 -1.33218192 3.99740483 -1 7 C-3 9 -3 9 -5.625 9.125 C-6.40875 9.08375 -7.1925 9.0425 -8 9 C-7.67 8.01 -7.34 7.02 -7 6 C-6.34 6.33 -5.68 6.66 -5 7 C-4.731875 6.401875 -4.46375 5.80375 -4.1875 5.1875 C-3.01506533 3.02775192 -1.80630718 1.64209744 0 0 Z " fill="#F47F8C" transform="translate(131,351)"/>
<path d="M0 0 C1.32 0.33 2.64 0.66 4 1 C1.36 3.64 -1.28 6.28 -4 9 C-6 6 -6 6 -6 4 C-4.02 3.67 -2.04 3.34 0 3 C0 2.01 0 1.02 0 0 Z " fill="#F06977" transform="translate(184,259)"/>
<path d="M0 0 C0.66 0.66 1.32 1.32 2 2 C3.32 2.33 4.64 2.66 6 3 C3.36 4.98 0.72 6.96 -2 9 C-2.25 3.375 -2.25 3.375 0 0 Z " fill="#F15B6B" transform="translate(401,438)"/>
<path d="M0 0 C0 0.99 0 1.98 0 3 C0.0825 3.804375 0.165 4.60875 0.25 5.4375 C0 8 0 8 -1.875 10.3125 C-4 12 -4 12 -6 12 C-4.68139111 7.38486888 -2.78644563 3.90102388 0 0 Z " fill="#E75A6C" transform="translate(37,125)"/>
<path d="M0 0 C7.59 0 15.18 0 23 0 C23.33 0.99 23.66 1.98 24 3 C23.37738281 2.84660156 22.75476563 2.69320312 22.11328125 2.53515625 C17.81725228 1.79669205 13.53758048 1.63537838 9.1875 1.4375 C8.30384766 1.39431641 7.42019531 1.35113281 6.50976562 1.30664062 C4.34000377 1.20108464 2.1700209 1.10008929 0 1 C0 0.67 0 0.34 0 0 Z " fill="#DE6174" transform="translate(368,77)"/>
<path d="M0 0 C0.99 0.33 1.98 0.66 3 1 C3.33 4.3 3.66 7.6 4 11 C4.66 11 5.32 11 6 11 C5.67 12.65 5.34 14.3 5 16 C3.13389074 13.20083611 2.31214617 11.18061731 1.375 8 C1.11460938 7.13375 0.85421875 6.2675 0.5859375 5.375 C0 3 0 3 0 0 Z " fill="#ED7786" transform="translate(11,313)"/>
<path d="M0 0 C0.66 0.33 1.32 0.66 2 1 C2 4.63 2 8.26 2 12 C1.01 12.495 1.01 12.495 0 13 C-0.19397476 11.02145742 -0.38001321 9.0421352 -0.5625 7.0625 C-0.66691406 5.96035156 -0.77132813 4.85820312 -0.87890625 3.72265625 C-0.91886719 2.82417969 -0.95882813 1.92570312 -1 1 C-0.67 0.67 -0.34 0.34 0 0 Z " fill="#E97482" transform="translate(5,275)"/>
<path d="M0 0 C2.97 0.495 2.97 0.495 6 1 C2.79989612 2.8133922 -0.13283843 3.52213974 -3.75 4.125 C-4.73484375 4.29257812 -5.7196875 4.46015625 -6.734375 4.6328125 C-7.48203125 4.75398438 -8.2296875 4.87515625 -9 5 C-9.33 4.34 -9.66 3.68 -10 3 C-6.52674819 1.8422494 -3.63932552 1.93133348 0 2 C0 1.34 0 0.68 0 0 Z " fill="#ED6C82" transform="translate(313,486)"/>
<path d="M0 0 C1.32 0 2.64 0 4 0 C4 0.66 4 1.32 4 2 C4.66 2.33 5.32 2.66 6 3 C3.03 5.475 3.03 5.475 0 8 C0 5.36 0 2.72 0 0 Z " fill="#F46476" transform="translate(338,109)"/>
<path d="M0 0 C4.8274799 1.41292095 8.7162359 3.42974154 13 6 C9.37673261 7.2077558 8.35853631 6.54311128 5 5 C4.67 5.66 4.34 6.32 4 7 C3.67 6.01 3.34 5.02 3 4 C2.01979625 2.9805881 1.02196992 1.97753644 0 1 C0 0.67 0 0.34 0 0 Z " fill="#E65563" transform="translate(361,30)"/>
<path d="M0 0 C1.32 0.33 2.64 0.66 4 1 C2.6905332 2.33631236 1.37734515 3.66897925 0.0625 5 C-0.66839844 5.7425 -1.39929688 6.485 -2.15234375 7.25 C-4 9 -4 9 -5 9 C-5 7.35 -5 5.7 -5 4 C-4.01 4.33 -3.02 4.66 -2 5 C-2 4.01 -2 3.02 -2 2 C-1.34 2 -0.68 2 0 2 C0 1.34 0 0.68 0 0 Z " fill="#F2717F" transform="translate(266,181)"/>
<path d="M0 0 C0 3 0 3 -1 5 C-2.66279327 6.0064275 -4.32983484 7.00585407 -6 8 C-7.75149165 9.58245275 -7.75149165 9.58245275 -9 11 C-9.66 10.67 -10.32 10.34 -11 10 C-9.54474941 8.51780033 -8.085701 7.03932861 -6.625 5.5625 C-5.81289062 4.73878906 -5.00078125 3.91507812 -4.1640625 3.06640625 C-2 1 -2 1 0 0 Z " fill="#F4A2AC" transform="translate(191,295)"/>
<path d="M0 0 C-0.97566112 1.16959987 -1.955625 2.33561177 -2.9375 3.5 C-3.48277344 4.1496875 -4.02804688 4.799375 -4.58984375 5.46875 C-5.05519531 5.9740625 -5.52054688 6.479375 -6 7 C-6.33 7 -6.66 7 -7 7 C-7 5.02 -7 3.04 -7 1 C-4.53721199 -0.231394 -2.7204945 -0.07159196 0 0 Z " fill="#EE6A79" transform="translate(249,201)"/>
<path d="M0 0 C1.62723299 0.45034123 3.25173664 0.91055354 4.875 1.375 C5.77992188 1.63023438 6.68484375 1.88546875 7.6171875 2.1484375 C10 3 10 3 12 5 C10.33388095 5.042721 8.66617115 5.04063832 7 5 C6.67 4.67 6.34 4.34 6 4 C4.00041636 3.95919217 1.99954746 3.95745644 0 4 C0 2.68 0 1.36 0 0 Z " fill="#EE6376" transform="translate(329,16)"/>
<path d="M0 0 C2.60018816 3.90028225 2.15085514 7.47434569 2 12 C2.99 12.33 3.98 12.66 5 13 C3.35 12.67 1.7 12.34 0 12 C-0.92844389 7.66726186 -0.92844389 4.33273814 0 0 Z " fill="#EE5467" transform="translate(301,411)"/>
<path d="M0 0 C0.99 0.66 1.98 1.32 3 2 C2.02433888 3.16959987 1.044375 4.33561177 0.0625 5.5 C-0.48277344 6.1496875 -1.02804687 6.799375 -1.58984375 7.46875 C-2.05519531 7.9740625 -2.52054687 8.479375 -3 9 C-3.33 9 -3.66 9 -4 9 C-4 7.35 -4 5.7 -4 4 C-3.01 4 -2.02 4 -1 4 C-0.67 2.68 -0.34 1.36 0 0 Z " fill="#F06577" transform="translate(440,403)"/>
<path d="M0 0 C0.33 0.66 0.66 1.32 1 2 C0.06553465 4.03144641 -0.93224776 6.03533587 -2 8 C-2.99 8 -3.98 8 -5 8 C-5 5 -5 5 -2.5 2.3125 C-1.675 1.549375 -0.85 0.78625 0 0 Z " fill="#EE5C6F" transform="translate(139,344)"/>
<path d="M0 0 C1.09898702 3.29696105 0.87124444 4.40494903 0.0625 7.6875 C-0.22947266 8.89986328 -0.22947266 8.89986328 -0.52734375 10.13671875 C-0.68332031 10.75160156 -0.83929688 11.36648438 -1 12 C-1.66 11.67 -2.32 11.34 -3 11 C-3.36923077 4.6 -3.36923077 4.6 -1.5 1.5625 C-1.005 1.046875 -0.51 0.53125 0 0 Z " fill="#E97383" transform="translate(492,296)"/>
<path d="M0 0 C0 3 0 3 -1 6 C-1.66 6 -2.32 6 -3 6 C-3.33 6.99 -3.66 7.98 -4 9 C-5.32 8.67 -6.64 8.34 -8 8 C-5.36 5.36 -2.72 2.72 0 0 Z " fill="#ED7689" transform="translate(281,209)"/>
<path d="M0 0 C0 0.99 0 1.98 0 3 C-0.66 3 -1.32 3 -2 3 C-2.33 3.99 -2.66 4.98 -3 6 C-5.97 5.505 -5.97 5.505 -9 5 C-6.14693203 2.67527795 -3.45925163 1.2491742 0 0 Z " fill="#EC5667" transform="translate(152,23)"/>
<path d="M0 0 C4.03174806 0.27489191 5.56894631 0.53491576 8.375 3.5625 C8.91125 4.366875 9.4475 5.17125 10 6 C4.68559972 6 3.78319167 4.52524678 0 1 C0 0.67 0 0.34 0 0 Z " fill="#ED7785" transform="translate(98,444)"/>
<path d="M0 0 C4.32239956 3.34003602 7.17477391 6.32751069 10 11 C9.01 11.495 9.01 11.495 8 12 C7.67 11.34 7.34 10.68 7 10 C6.01 9.67 5.02 9.34 4 9 C3.64587656 7.67203709 3.31478446 6.33783393 3 5 C2.01979625 3.9805881 1.02196992 2.97753644 0 2 C0 1.34 0 0.68 0 0 Z " fill="#F495A1" transform="translate(111,344)"/>
<path d="M0 0 C0.66 0.33 1.32 0.66 2 1 C1.44687265 5.02992782 0.8441938 9.02022924 0 13 C-0.66 12.67 -1.32 12.34 -2 12 C-1.34 8.04 -0.68 4.08 0 0 Z " fill="#E97A89" transform="translate(9,192)"/>
<path d="M0 0 C0.33 0 0.66 0 1 0 C1.17835515 4.54805635 0.99785435 7.8794254 -1 12 C-1.66 11.67 -2.32 11.34 -3 11 C-2.69078116 9.54096742 -2.37751201 8.08279278 -2.0625 6.625 C-1.88847656 5.81289062 -1.71445313 5.00078125 -1.53515625 4.1640625 C-1 2 -1 2 0 0 Z " fill="#ED7683" transform="translate(16,169)"/>
<path d="M0 0 C0.66 0.33 1.32 0.66 2 1 C2 1.99 2 2.98 2 4 C0.68 4 -0.64 4 -2 4 C-2.33 4.99 -2.66 5.98 -3 7 C-4.32 6.67 -5.64 6.34 -7 6 C-4.69 4.02 -2.38 2.04 0 0 Z " fill="#EE6373" transform="translate(105,49)"/>
<path d="M0 0 C0 0.33 0 0.66 0 1 C-4.76052962 2.97387813 -7.96488101 3.0070238 -13 2 C-13 1.67 -13 1.34 -13 1 C-11.58622218 0.63447197 -10.16879424 0.28304505 -8.75 -0.0625 C-7.96109375 -0.25972656 -7.1721875 -0.45695313 -6.359375 -0.66015625 C-3.89605178 -1.01497267 -2.34395868 -0.76877544 0 0 Z " fill="#E97384" transform="translate(205,8)"/>
<path d="M0 0 C2.72869407 0.03287583 5.2966618 0.56397771 8 1 C8 1.66 8 2.32 8 3 C8.99 3.33 9.98 3.66 11 4 C6.62065881 3.48041715 2.31196609 2.94324258 -2 2 C-1.34 1.34 -0.68 0.68 0 0 Z " fill="#F08292" transform="translate(194,489)"/>
<path d="M0 0 C0.66 0.33 1.32 0.66 2 1 C2 4.96 2 8.92 2 13 C0.03474177 9.06948353 -0.59949581 6.32544525 -1 2 C-0.67 1.34 -0.34 0.68 0 0 Z " fill="#EB6A7B" transform="translate(9,299)"/>
<path d="M0 0 C1.32 0.66 2.64 1.32 4 2 C0.535 4.97 0.535 4.97 -3 8 C-3 6.68 -3 5.36 -3 4 C-2.34 3.67 -1.68 3.34 -1 3 C-1.33 2.34 -1.66 1.68 -2 1 C-1.34 0.67 -0.68 0.34 0 0 Z " fill="#EF717D" transform="translate(236,209)"/>
<path d="M0 0 C2.475 0.495 2.475 0.495 5 1 C5.66 2.98 6.32 4.96 7 7 C6.01 7 5.02 7 4 7 C0 2.65714286 0 2.65714286 0 0 Z " fill="#EE697B" transform="translate(49,393)"/>
<path d="M0 0 C0.33 1.32 0.66 2.64 1 4 C-0.1446875 4.6496875 -0.1446875 4.6496875 -1.3125 5.3125 C-3.58093768 6.73686785 -5.2199723 8.03260097 -7 10 C-7.66 9.67 -8.32 9.34 -9 9 C-6.03 6.03 -3.06 3.06 0 0 Z " fill="#F6A5AD" transform="translate(228,259)"/>
<path d="M0 0 C2 1 2 1 2.703125 2.99609375 C2.88359375 3.80175781 3.0640625 4.60742188 3.25 5.4375 C3.44078125 6.24058594 3.6315625 7.04367188 3.828125 7.87109375 C3.88484375 8.57363281 3.9415625 9.27617187 4 10 C3.34 10.66 2.68 11.32 2 12 C0.70756464 7.8803623 -0.26252625 4.33168317 0 0 Z " fill="#E96778" transform="translate(485,177)"/>
<path d="M0 0 C0 0.99 0 1.98 0 3 C0.66 3.33 1.32 3.66 2 4 C2 4.66 2 5.32 2 6 C-3.75 4.25 -3.75 4.25 -6 2 C-2.25 0 -2.25 0 0 0 Z " fill="#EC586A" transform="translate(141,466)"/>
<path d="M0 0 C0.33 0.99 0.66 1.98 1 3 C0.01 3.33 -0.98 3.66 -2 4 C-2.33 4.99 -2.66 5.98 -3 7 C-4.65 7 -6.3 7 -8 7 C-6.62141149 4.24282298 -4.62533685 3.53678254 -2 2 C-1.34 1.34 -0.68 0.68 0 0 Z " fill="#EB4B63" transform="translate(148,337)"/>
<path d="M0 0 C1 2 1 2 1 6 C-1.31 6 -3.62 6 -6 6 C-4 4 -2 2 0 0 Z " fill="#F07B88" transform="translate(272,218)"/>
<path d="M0 0 C1 2 1 2 0.5 4 C-1.75069493 7.00092657 -4.44640878 7.21031306 -8 8 C-5.33333333 5.33333333 -2.66666667 2.66666667 0 0 Z " fill="#E97484" transform="translate(353,141)"/>
<path d="M0 0 C4.75 0.75 4.75 0.75 7 3 C7.125 6.125 7.125 6.125 7 9 C6.34 8.01 5.68 7.02 5 6 C4.13824802 4.92672708 3.2630396 3.86412584 2.375 2.8125 C1.59125 1.884375 0.8075 0.95625 0 0 Z " fill="#F08190" transform="translate(392,80)"/>
<path d="M0 0 C3.77545388 1.09068668 6.47043472 1.9083091 9 5 C7.02 5 5.04 5 3 5 C3 4.01 3 3.02 3 2 C2.01 2 1.02 2 0 2 C0 1.34 0 0.68 0 0 Z " fill="#E77280" transform="translate(380,41)"/>
<path d="M0 0 C1.32 0.33 2.64 0.66 4 1 C2.87926138 1.83905565 1.75325453 2.67107831 0.625 3.5 C-0.00148438 3.9640625 -0.62796875 4.428125 -1.2734375 4.90625 C-3 6 -3 6 -5 6 C-5 5.34 -5 4.68 -5 4 C-4.34 4 -3.68 4 -3 4 C-3 3.34 -3 2.68 -3 2 C-2.01 2 -1.02 2 0 2 C0 1.34 0 0.68 0 0 Z " fill="#EA7789" transform="translate(389,451)"/>
<path d="M0 0 C0.66 0.33 1.32 0.66 2 1 C2.33 1.99 2.66 2.98 3 4 C2.34 4.66 1.68 5.32 1 6 C-1.625 5.625 -1.625 5.625 -4 5 C-2.68 3.35 -1.36 1.7 0 0 Z " fill="#EF445B" transform="translate(133,351)"/>
<path d="M0 0 C1.2065625 0.0309375 1.2065625 0.0309375 2.4375 0.0625 C0.79580472 2.08304804 -0.87161778 4.08293058 -2.5625 6.0625 C-2.8925 6.0625 -3.2225 6.0625 -3.5625 6.0625 C-3.605221 4.39638095 -3.60313832 2.72867115 -3.5625 1.0625 C-2.5625 0.0625 -2.5625 0.0625 0 0 Z " fill="#EE697A" transform="translate(112.5625,328.9375)"/>
<path d="M0 0 C1 2 1 2 0.4375 4 C-1.57302108 6.79724672 -3.74418077 7.15065585 -7 8 C-6.02133662 6.85373678 -5.04205413 5.70800212 -4.0625 4.5625 C-3.51722656 3.92441406 -2.97195313 3.28632813 -2.41015625 2.62890625 C-1.63204305 1.73008851 -0.84063472 0.84063472 0 0 Z " fill="#ED8B9D" transform="translate(344,149)"/>
<path d="M0 0 C2.64465038 3.1254959 3.84414715 6.08788267 5 10 C4.34 10 3.68 10 3 10 C3 9.34 3 8.68 3 8 C2.34 8 1.68 8 1 8 C0.67 5.36 0.34 2.72 0 0 Z " fill="#E76070" transform="translate(471,141)"/>
<path d="M0 0 C1 2 1 2 0.8125 3.9375 C-0.22687271 6.57590764 -1.6538835 7.48637645 -4 9 C-4.66 8.67 -5.32 8.34 -6 8 C-4.02 5.36 -2.04 2.72 0 0 Z " fill="#EA7084" transform="translate(51,103)"/>
<path d="M0 0 C0.33 1.32 0.66 2.64 1 4 C0.01 4.33 -0.98 4.66 -2 5 C-2.99 6.485 -2.99 6.485 -4 8 C-4.99 7.67 -5.98 7.34 -7 7 C-4.69 4.69 -2.38 2.38 0 0 Z " fill="#E95367" transform="translate(88,63)"/>
<path d="M0 0 C-2.49505962 2.49505962 -3.67328888 2.35948376 -7.125 2.625 C-8.03507813 2.69976563 -8.94515625 2.77453125 -9.8828125 2.8515625 C-10.93082031 2.92503906 -10.93082031 2.92503906 -12 3 C-7.97869817 0.31913211 -4.73968522 -1.57989507 0 0 Z " fill="#EA6E7A" transform="translate(181,14)"/>
<path d="M0 0 C0.66 0.33 1.32 0.66 2 1 C-1.75 7.875 -1.75 7.875 -4 9 C-4.33 7.68 -4.66 6.36 -5 5 C-4.01 5 -3.02 5 -2 5 C-2 4.34 -2 3.68 -2 3 C-1.34 3 -0.68 3 0 3 C0 2.01 0 1.02 0 0 Z " fill="#EB7686" transform="translate(455,384)"/>
<path d="M0 0 C0.66 0 1.32 0 2 0 C0.84414715 3.91211733 -0.35534962 6.8745041 -3 10 C-3.33 8.68 -3.66 7.36 -4 6 C-3.34 5.67 -2.68 5.34 -2 5 C-1.27840576 3.35636866 -0.60648579 1.68949614 0 0 Z " fill="#E86072" transform="translate(473,351)"/>
<path d="M0 0 C1.32 0.33 2.64 0.66 4 1 C4 2.65 4 4.3 4 6 C3.01 6.495 3.01 6.495 2 7 C2 6.01 2 5.02 2 4 C1.34 4 0.68 4 0 4 C0 2.68 0 1.36 0 0 Z " fill="#F85165" transform="translate(257,185)"/>
<path d="M0 0 C3.48331435 3.01887244 4.79157144 5.56909529 6 10 C5.01 9.67 4.02 9.34 3 9 C2.6278958 7.67696283 2.29369827 6.34262065 2 5 C1.34 4.67 0.68 4.34 0 4 C0 2.68 0 1.36 0 0 Z " fill="#E25C6C" transform="translate(461,123)"/>
<path d="M0 0 C1.32 0.66 2.64 1.32 4 2 C3.67 2.99 3.34 3.98 3 5 C1.35 5 -0.3 5 -2 5 C-1.34 3.35 -0.68 1.7 0 0 Z " fill="#F26779" transform="translate(431,83)"/>
<path d="M0 0 C0.66 0.33 1.32 0.66 2 1 C0.875 3.4375 0.875 3.4375 -1 6 C-4.1875 6.8125 -4.1875 6.8125 -7 7 C-4.66666667 4.66666667 -2.33333333 2.33333333 0 0 Z " fill="#EA6576" transform="translate(96,56)"/>
<path d="M0 0 C6.875 3.75 6.875 3.75 8 6 C6.68 6 5.36 6 4 6 C4 5.34 4 4.68 4 4 C3.01 4.33 2.02 4.66 1 5 C0.67 3.35 0.34 1.7 0 0 Z " fill="#E9697B" transform="translate(392,48)"/>
<path d="M0 0 C1 2 1 2 0.375 4.0625 C-1 6 -1 6 -3.625 6.75 C-4.800625 6.87375 -4.800625 6.87375 -6 7 C-4.02 4.69 -2.04 2.38 0 0 Z " fill="#E96473" transform="translate(179,306)"/>
<path d="M0 0 C0.99 0 1.98 0 3 0 C1.60667426 3.36720387 0.0210714 4.9859524 -3 7 C-3 5.68 -3 4.36 -3 3 C-2.01 3 -1.02 3 0 3 C0 2.01 0 1.02 0 0 Z " fill="#EF7381" transform="translate(174,269)"/>
<path d="M0 0 C0 2.62113708 -0.31292445 4.50935112 -1 7 C-1.99 7 -2.98 7 -4 7 C-3.6875 4.625 -3.6875 4.625 -3 2 C-2.01 1.34 -1.02 0.68 0 0 Z " fill="#F26D7D" transform="translate(233,255)"/>
<path d="M0 0 C0.33 0.66 0.66 1.32 1 2 C-0.30406884 4.01920337 -1.63823419 6.01924973 -3 8 C-3.33 8 -3.66 8 -4 8 C-4 6.35 -4 4.7 -4 3 C-3.01 3 -2.02 3 -1 3 C-0.67 2.01 -0.34 1.02 0 0 Z " fill="#E45F6E" transform="translate(466,367)"/>
<path d="M0 0 C0.99 0.33 1.98 0.66 3 1 C1.68 2.32 0.36 3.64 -1 5 C-1.99 4.67 -2.98 4.34 -4 4 C-2.68 2.68 -1.36 1.36 0 0 Z " fill="#E76575" transform="translate(238,250)"/>
<path d="M0 0 C-0.66 1.65 -1.32 3.3 -2 5 C-3.65 4.67 -5.3 4.34 -7 4 C-2.25 0 -2.25 0 0 0 Z " fill="#E55164" transform="translate(135,32)"/>
<path d="M0 0 C1.84765625 0.33984375 1.84765625 0.33984375 4.0625 0.9375 C5.16271484 1.22947266 5.16271484 1.22947266 6.28515625 1.52734375 C7.13400391 1.76130859 7.13400391 1.76130859 8 2 C7.34 2.66 6.68 3.32 6 4 C2.98694043 3.61121812 1.60314689 2.73543126 -1 1 C-0.67 0.67 -0.34 0.34 0 0 Z " fill="#EB6879" transform="translate(320,13)"/>
</svg>
